<svg width="801" height="602" viewBox="0 0 801 602" fill="none" xmlns="http://www.w3.org/2000/svg">
<circle cx="529" cy="112" r="112" fill="#F1BD04"/>
<circle cx="231" cy="112" r="112" fill="#F1BD04"/>
<path fill-rule="evenodd" clip-rule="evenodd" d="M756.699 332.172C757.025 331.215 757.491 330.308 758.084 329.49L798.28 274.03C801.644 269.388 800.425 262.874 795.611 259.762L786.08 253.603C781.265 250.491 774.826 252.056 771.976 257.03L738.84 314.857C738.232 315.919 737.437 316.858 736.486 317.628C645.872 390.947 519.781 436.412 380.346 436.412C237.033 436.412 107.816 388.382 16.7273 311.445C9.13574 305.033 -2.46638 311.806 0.4644 321.301C50.5384 483.532 201.676 601.412 380.346 601.412C555.001 601.412 703.346 488.771 756.699 332.172Z" fill="#EBE43E"/>
</svg>
